<?xml version="1.0" standalone="no"?>
<!DOCTYPE svg PUBLIC "-//W3C//DTD SVG 20010904//EN"
 "http://www.w3.org/TR/2001/REC-SVG-20010904/DTD/svg10.dtd">
<svg version="1.0" xmlns="http://www.w3.org/2000/svg"
 width="900.000000pt" height="900.000000pt" viewBox="0 0 900.000000 900.000000"
 preserveAspectRatio="xMidYMid meet">
<metadata>
Created by potrace 1.10, written by Peter Selinger 2001-2011
</metadata>
<g transform="translate(0.000000,900.000000) scale(0.100000,-0.100000)"
fill="#ffffff" stroke="none">
<path d="M2763 5430 c-117 -27 -202 -199 -173 -346 6 -33 18 -75 26 -95 21
-48 99 -106 164 -123 45 -12 57 -12 94 2 22 9 48 22 57 29 21 17 44 17 59 -2
25 -30 31 -13 29 80 -2 76 1 98 14 113 10 10 17 22 17 25 0 4 -43 7 -95 7 -73
0 -95 -3 -95 -14 0 -7 15 -17 33 -22 32 -10 32 -11 35 -76 4 -86 -8 -98 -91
-98 -111 0 -160 60 -175 213 -7 81 21 179 66 229 33 37 36 38 103 38 61 0 71
-3 97 -28 15 -15 34 -49 41 -75 10 -35 19 -47 32 -47 17 0 19 9 19 90 0 70 -3
90 -14 90 -8 0 -16 -7 -20 -15 -7 -20 -30 -19 -51 1 -29 29 -106 40 -172 24z"/>
<path d="M1560 5422 c-21 -7 -9 -31 18 -34 l27 -3 0 -235 0 -235 -27 -3 c-17
-2 -28 -9 -28 -18 0 -12 18 -14 103 -12 61 2 101 7 100 13 -1 6 -10 12 -20 13
-34 7 -43 33 -43 123 0 48 5 91 10 94 7 4 7 12 0 25 -11 20 -14 181 -4 218 5
19 13 22 54 22 66 0 98 -29 106 -96 9 -69 -12 -106 -71 -130 -25 -11 -45 -22
-45 -26 0 -3 13 -9 29 -13 16 -3 34 -12 39 -18 14 -18 42 -107 42 -133 0 -45
33 -93 67 -100 48 -9 83 2 83 27 0 16 -5 20 -19 16 -10 -2 -23 -2 -28 2 -11 8
-43 106 -43 133 0 12 -17 36 -37 55 -34 33 -36 36 -17 46 10 6 34 25 52 43 28
28 32 38 32 86 0 48 -4 57 -32 84 -57 52 -79 58 -213 58 -69 1 -129 0 -135 -2z"/>
<path d="M3138 5412 c-8 -9 -3 -15 20 -23 22 -7 31 -18 36 -41 10 -50 7 -374
-4 -403 -5 -14 -21 -30 -35 -35 -54 -20 -12 -30 129 -30 158 0 182 7 240 64
62 62 71 89 71 216 0 108 -2 118 -26 155 -62 93 -101 108 -277 109 -104 1
-147 -2 -154 -12z m291 -44 c50 -31 58 -40 78 -89 21 -52 25 -221 5 -241 -7
-7 -12 -19 -12 -27 -2 -62 -175 -132 -218 -89 -13 13 -18 449 -5 461 3 4 31 7
61 7 39 0 65 -6 91 -22z"/>
<path d="M3832 5398 c-57 -40 -85 -87 -107 -179 -17 -73 -17 -80 -1 -145 9
-38 28 -86 42 -107 28 -43 98 -97 126 -97 11 0 28 -5 40 -11 13 -7 28 -8 46
-1 15 6 38 13 52 16 41 9 103 70 135 131 26 53 29 67 28 154 -1 73 -6 104 -20
131 -36 67 -55 89 -98 115 -37 21 -55 25 -122 24 -70 -1 -82 -4 -121 -31z
m210 -35 c41 -45 55 -74 69 -145 10 -56 10 -80 0 -135 -23 -119 -71 -175 -150
-176 -45 -1 -55 3 -87 34 -55 53 -74 107 -74 211 0 100 17 151 69 206 26 29
35 32 88 32 52 0 62 -3 85 -27z"/>
<path d="M4301 5422 c-19 -6 -12 -21 17 -34 l27 -13 3 -213 c3 -221 -2 -252
-38 -252 -11 0 -20 -7 -20 -15 0 -13 29 -15 199 -15 l198 0 6 78 c6 84 0 100
-32 83 -15 -8 -21 -21 -21 -45 0 -57 -30 -80 -111 -84 -46 -3 -74 0 -84 8 -12
10 -15 49 -15 225 0 118 3 220 6 229 3 9 17 16 31 16 18 0 24 5 21 17 -3 15
-16 17 -90 18 -48 0 -92 -1 -97 -3z"/>
<path d="M4780 5422 c-18 -6 -10 -32 10 -32 35 0 40 -32 40 -240 0 -208 -5
-240 -40 -240 -11 0 -20 -7 -20 -15 0 -13 26 -15 198 -13 l197 3 0 80 c0 73
-2 80 -20 80 -16 0 -21 -8 -25 -47 -3 -26 -8 -49 -10 -51 -37 -30 -61 -37
-122 -37 -62 0 -68 2 -73 23 -3 12 -4 119 -3 237 l3 214 24 6 c27 6 41 29 19
31 -35 3 -169 4 -178 1z"/>
<path d="M2257 5402 c-10 -10 -17 -30 -17 -43 0 -14 -6 -33 -14 -44 -7 -11
-16 -32 -20 -47 -3 -16 -11 -28 -16 -28 -6 0 -10 -8 -10 -18 0 -10 -6 -26 -14
-37 -7 -11 -16 -37 -20 -57 -4 -21 -11 -38 -16 -38 -5 0 -12 -16 -16 -35 -3
-19 -10 -38 -15 -41 -5 -3 -9 -14 -9 -26 0 -11 -14 -38 -31 -60 -17 -21 -30
-40 -28 -42 2 -2 32 -6 66 -9 43 -3 67 -1 80 8 17 13 16 15 -13 25 -38 13 -49
45 -29 77 8 12 15 31 15 42 0 29 27 51 63 51 40 0 77 10 77 20 0 5 -22 11 -50
15 -51 7 -59 17 -41 53 5 9 17 43 27 75 19 60 33 68 45 26 4 -13 17 -49 28
-79 12 -30 21 -64 21 -76 0 -12 6 -27 14 -33 8 -7 18 -27 22 -44 3 -17 13 -42
21 -54 20 -31 13 -66 -15 -73 -53 -12 -23 -25 66 -28 52 -2 92 1 92 7 0 5 -14
23 -30 41 -17 18 -33 44 -37 59 -3 14 -12 35 -19 46 -8 11 -14 29 -14 42 0 12
-4 24 -10 28 -5 3 -14 20 -19 38 -5 18 -19 57 -31 87 -12 30 -31 85 -43 123
-22 70 -33 79 -60 49z"/>
<path d="M2920 4433 c-14 -2 -39 -11 -57 -19 -17 -8 -34 -14 -38 -14 -16 0
-79 -57 -104 -94 -53 -79 -60 -235 -13 -321 42 -78 128 -125 229 -125 56 0 71
4 110 30 44 30 63 32 63 4 0 -8 7 -14 15 -14 12 0 15 17 15 94 0 71 4 97 15
106 25 21 9 27 -77 28 -46 1 -92 2 -102 4 -35 5 -29 -22 8 -37 36 -15 36 -15
36 -78 0 -87 -18 -111 -77 -104 -50 5 -85 33 -114 89 -26 51 -28 252 -3 301
53 103 116 129 198 84 42 -24 72 -67 78 -113 4 -35 33 -44 41 -14 8 32 -5 170
-16 170 -5 0 -15 -7 -21 -16 -11 -14 -17 -13 -59 9 -52 28 -89 37 -127 30z"/>
<path d="M2246 4421 c-3 -5 -18 -12 -32 -15 -40 -11 -81 -45 -122 -104 l-37
-54 0 -107 c1 -89 4 -112 22 -144 26 -47 75 -92 127 -118 54 -26 163 -26 215
0 45 23 102 85 131 140 28 55 28 197 1 258 -24 52 -93 120 -131 128 -17 4 -32
11 -35 16 -8 12 -132 12 -139 0z m125 -54 c57 -51 79 -112 79 -223 0 -110 -16
-161 -68 -216 -26 -27 -44 -38 -66 -38 -39 0 -88 39 -117 92 -20 38 -23 57
-23 163 0 109 2 125 23 160 32 53 80 94 111 95 14 0 40 -14 61 -33z"/>
<path d="M3673 4409 c-63 -29 -83 -61 -83 -129 0 -53 3 -61 38 -96 21 -22 58
-52 82 -68 85 -56 120 -96 120 -136 0 -52 -32 -80 -92 -80 -66 0 -104 39 -113
115 -6 45 -11 55 -26 55 -17 0 -19 -9 -19 -96 l0 -96 34 6 c24 5 37 2 46 -9
18 -22 148 -21 192 3 128 67 131 184 7 273 -26 19 -70 50 -98 69 -84 58 -92
125 -21 164 35 18 35 18 71 -5 38 -25 63 -63 75 -112 4 -19 12 -27 23 -25 23
5 29 155 6 164 -8 4 -21 2 -28 -4 -8 -7 -24 -5 -51 9 -49 24 -108 23 -163 -2z"/>
<path d="M5065 4411 c-93 -37 -139 -91 -168 -197 -22 -77 -21 -88 4 -169 23
-75 70 -131 140 -165 61 -29 169 -28 211 1 25 18 33 20 53 9 13 -7 27 -10 32
-7 4 3 8 45 8 94 0 82 -1 88 -21 91 -19 3 -22 -3 -26 -50 -5 -45 -11 -57 -43
-85 -71 -61 -160 -39 -207 50 -19 36 -22 59 -22 159 -1 105 2 122 23 161 26
47 78 87 114 87 29 0 83 -26 110 -53 13 -13 22 -38 25 -69 4 -43 7 -49 25 -46
20 3 21 10 22 91 0 73 -2 87 -15 87 -9 0 -21 -5 -26 -10 -7 -7 -26 -2 -58 15
-55 29 -120 32 -181 6z"/>
<path d="M5545 4406 c-72 -40 -100 -105 -74 -173 15 -39 43 -68 120 -119 85
-57 108 -83 115 -125 14 -82 -98 -122 -165 -60 -17 16 -31 36 -31 45 0 9 -4
24 -9 34 -6 9 -12 29 -16 45 -5 27 -34 38 -36 15 -3 -31 3 -203 8 -208 2 -3
10 3 17 13 16 21 36 22 62 2 12 -9 43 -14 87 -15 79 0 129 21 172 72 24 29 27
38 23 91 -4 52 -8 62 -44 95 -21 21 -72 59 -111 85 -82 54 -95 72 -91 124 2
29 10 39 39 56 l37 21 41 -27 c41 -28 54 -47 65 -98 6 -27 30 -44 47 -33 5 3
9 41 9 85 l0 79 -40 -6 c-28 -5 -47 -2 -64 10 -36 23 -112 19 -161 -8z"/>
<path d="M1720 4410 c-25 -4 -71 -5 -102 -2 -49 4 -58 2 -58 -12 0 -9 11 -21
25 -26 l25 -10 0 -214 0 -215 -30 -23 c-41 -30 -40 -52 3 -44 81 17 103 18
151 6 35 -8 79 -9 141 -3 l90 8 0 94 c0 67 -4 96 -13 99 -7 2 -15 -9 -18 -27
-4 -17 -11 -34 -15 -37 -5 -3 -9 -13 -9 -23 0 -32 -87 -91 -134 -91 -15 0 -30
8 -36 19 -6 12 -10 106 -10 236 l0 215 25 12 c22 10 37 50 18 47 -5 -1 -28 -5
-53 -9z"/>
<path d="M4730 4409 c-25 -4 -69 -5 -97 -2 -59 6 -70 -8 -33 -40 19 -16 20
-29 20 -218 0 -207 -4 -230 -42 -258 -33 -23 -6 -36 46 -21 43 12 75 10 139
-5 35 -9 37 13 2 45 l-25 23 0 209 0 209 28 24 c35 31 21 44 -38 34z"/>
<path d="M3260 4398 c0 -6 11 -19 25 -30 l25 -19 0 -204 0 -204 -31 -36 c-35
-39 -24 -54 25 -35 35 13 87 13 122 0 47 -18 60 -5 30 31 -25 29 -26 36 -27
162 -3 247 0 290 22 306 42 30 23 39 -86 39 -62 0 -105 -5 -105 -10z"/>
<path d="M4029 4400 c-1 -3 -3 -34 -4 -70 -1 -36 -4 -74 -6 -85 -3 -16 1 -20
21 -20 22 0 25 6 33 50 9 55 35 90 74 100 50 12 53 -1 53 -216 0 -109 -4 -209
-9 -222 -6 -14 -23 -29 -40 -35 -18 -6 -31 -18 -31 -28 0 -14 6 -15 43 -9 54
10 140 10 196 0 39 -7 43 -6 39 11 -2 10 -12 20 -23 22 -11 2 -30 13 -42 25
-22 20 -23 26 -23 223 0 111 3 209 6 218 8 20 36 20 73 2 28 -15 58 -70 63
-116 2 -14 10 -26 21 -28 15 -3 17 6 17 90 l0 94 -230 0 c-126 0 -231 -3 -231
-6z"/>
</g>
</svg>
